
<svg width="177px" height="37px" viewBox="0 0 177 37" version="1.1" xmlns="http://www.w3.org/2000/svg" xmlns:xlink="http://www.w3.org/1999/xlink">
    <!-- Generator: Sketch 44.1 (41455) - http://www.bohemiancoding.com/sketch -->
    <desc>Created with Sketch.</desc>
    <defs></defs>
    <g id="Page-1" stroke="none" stroke-width="1" fill="none" fill-rule="evenodd">
        <path d="M24.272,26.452 C23.0239938,27.1000032 21.5660083,27.627998 19.898,28.036 C18.2299917,28.444002 16.4120098,28.648 14.444,28.648 C12.4039898,28.648 10.5260086,28.3240032 8.81,27.676 C7.09399142,27.0279968 5.61800618,26.1160059 4.382,24.94 C3.14599382,23.7639941 2.18000348,22.3540082 1.484,20.71 C0.78799652,19.0659918 0.44,17.2360101 0.44,15.22 C0.44,13.1799898 0.79399646,11.3320083 1.502,9.676 C2.21000354,8.01999172 3.18799376,6.61000582 4.436,5.446 C5.68400624,4.28199418 7.1479916,3.38800312 8.828,2.764 C10.5080084,2.13999688 12.3199903,1.828 14.264,1.828 C16.2800101,1.828 18.1519914,2.13399694 19.88,2.746 C21.6080086,3.35800306 23.0119946,4.17999484 24.092,5.212 L20.204,9.64 C19.603997,8.94399652 18.8120049,8.37400222 17.828,7.93 C16.8439951,7.48599778 15.7280062,7.264 14.48,7.264 C13.3999946,7.264 12.4040046,7.46199802 11.492,7.858 C10.5799954,8.25400198 9.78800336,8.80599646 9.116,9.514 C8.44399664,10.2220035 7.92200186,11.0619951 7.55,12.034 C7.17799814,13.0060049 6.992,14.0679942 6.992,15.22 C6.992,16.3960059 7.15999832,17.4759951 7.496,18.46 C7.83200168,19.4440049 8.3299967,20.2899965 8.99,20.998 C9.6500033,21.7060035 10.4659951,22.257998 11.438,22.654 C12.4100049,23.050002 13.5199938,23.248 14.768,23.248 C15.4880036,23.248 16.1719968,23.1940005 16.82,23.086 C17.4680032,22.9779995 18.0679972,22.8040012 18.62,22.564 L18.62,17.92 L13.76,17.92 L13.76,12.952 L24.272,12.952 L24.272,26.452 Z M35.396,4.348 C35.396,4.80400228 35.3060009,5.22999802 35.126,5.626 C34.9459991,6.02200198 34.7060015,6.36399856 34.406,6.652 C34.1059985,6.94000144 33.7460021,7.16799916 33.326,7.336 C32.9059979,7.50400084 32.4680023,7.588 32.012,7.588 C31.0519952,7.588 30.2480032,7.27000318 29.6,6.634 C28.9519968,5.99799682 28.628,5.23600444 28.628,4.348 C28.628,3.91599784 28.7119992,3.50200198 28.88,3.106 C29.0480008,2.70999802 29.2879984,2.36800144 29.6,2.08 C29.9120016,1.79199856 30.271998,1.5580009 30.68,1.378 C31.088002,1.1979991 31.5319976,1.108 32.012,1.108 C32.4680023,1.108 32.9059979,1.19199916 33.326,1.36 C33.7460021,1.52800084 34.1059985,1.75599856 34.406,2.044 C34.7060015,2.33200144 34.9459991,2.67399802 35.126,3.07 C35.3060009,3.46600198 35.396,3.89199772 35.396,4.348 Z M29.06,28 L29.06,10.072 L34.964,10.072 L34.964,28 L29.06,28 Z M39.716,28 L39.716,0.784 L45.692,0.784 L45.692,28 L39.716,28 Z M60.956,20.188 L60.2,20.188 C59.5519968,20.188 58.8980033,20.2179997 58.238,20.278 C57.5779967,20.3380003 56.9900026,20.4519992 56.474,20.62 C55.9579974,20.7880008 55.5320017,21.0339984 55.196,21.358 C54.8599983,21.6820016 54.692,22.1079974 54.692,22.636 C54.692,22.9720017 54.7699992,23.2599988 54.926,23.5 C55.0820008,23.7400012 55.2799988,23.9319993 55.52,24.076 C55.7600012,24.2200007 56.0359984,24.3219997 56.348,24.382 C56.6600016,24.4420003 56.9599986,24.472 57.248,24.472 C58.448006,24.472 59.3659968,24.1420033 60.002,23.482 C60.6380032,22.8219967 60.956,21.9280056 60.956,20.8 L60.956,20.188 Z M50.12,12.52 C51.1760053,11.511995 52.405993,10.7560025 53.81,10.252 C55.214007,9.74799748 56.6479927,9.496 58.112,9.496 C59.6240076,9.496 60.9019948,9.68199814 61.946,10.054 C62.9900052,10.4260019 63.8359968,11.0019961 64.484,11.782 C65.1320032,12.5620039 65.6059985,13.5459941 65.906,14.734 C66.2060015,15.9220059 66.356,17.3319918 66.356,18.964 L66.356,28 L60.956,28 L60.956,26.092 L60.848,26.092 C60.3919977,26.8360037 59.7020046,27.411998 58.778,27.82 C57.8539954,28.228002 56.8520054,28.432 55.772,28.432 C55.0519964,28.432 54.3080038,28.336001 53.54,28.144 C52.7719962,27.951999 52.0700032,27.6400022 51.434,27.208 C50.7979968,26.7759978 50.276002,26.2000036 49.868,25.48 C49.459998,24.7599964 49.256,23.8720053 49.256,22.816 C49.256,21.5199935 49.6099965,20.476004 50.318,19.684 C51.0260035,18.891996 51.9379944,18.2800022 53.054,17.848 C54.1700056,17.4159978 55.4119932,17.1280007 56.78,16.984 C58.1480068,16.8399993 59.4799935,16.768 60.776,16.768 L60.776,16.48 C60.776,15.5919956 60.4640031,14.9380021 59.84,14.518 C59.2159969,14.0979979 58.4480046,13.888 57.536,13.888 C56.6959958,13.888 55.8860039,14.0679982 55.106,14.428 C54.3259961,14.7880018 53.6600028,15.2199975 53.108,15.724 L50.12,12.52 Z M80.072,28 L80.072,2.512 L86.264,2.512 L86.264,22.636 L96.128,22.636 L96.128,28 L80.072,28 Z M111.032,16.984 C111.032,16.0479953 110.738003,15.2440034 110.15,14.572 C109.561997,13.8999966 108.680006,13.564 107.504,13.564 C106.927997,13.564 106.400002,13.6539991 105.92,13.834 C105.439998,14.0140009 105.020002,14.2599984 104.66,14.572 C104.299998,14.8840016 104.012001,15.2499979 103.796,15.67 C103.579999,16.0900021 103.46,16.5279977 103.436,16.984 L111.032,16.984 Z M116.468,19.252 L116.468,19.972 C116.468,20.2120012 116.456,20.4399989 116.432,20.656 L103.436,20.656 C103.484,21.1600025 103.633999,21.615998 103.886,22.024 C104.138001,22.432002 104.461998,22.7859985 104.858,23.086 C105.254002,23.3860015 105.697998,23.6199992 106.19,23.788 C106.682002,23.9560008 107.191997,24.04 107.72,24.04 C108.656005,24.04 109.447997,23.8660017 110.096,23.518 C110.744003,23.1699983 111.271998,22.7200028 111.68,22.168 L115.784,24.76 C114.943996,25.9840061 113.834007,26.9259967 112.454,27.586 C111.073993,28.2460033 109.472009,28.576 107.648,28.576 C106.303993,28.576 105.032006,28.3660021 103.832,27.946 C102.631994,27.5259979 101.582005,26.914004 100.682,26.11 C99.7819955,25.305996 99.0740026,24.3160059 98.558,23.14 C98.0419974,21.9639941 97.784,20.6200076 97.784,19.108 C97.784,17.6439927 98.0359975,16.3180059 98.54,15.13 C99.0440025,13.9419941 99.7279957,12.9340041 100.592,12.106 C101.456004,11.2779959 102.475994,10.6360023 103.652,10.18 C104.828006,9.72399772 106.099993,9.496 107.468,9.496 C108.788007,9.496 109.999994,9.71799778 111.104,10.162 C112.208006,10.6060022 113.155996,11.2479958 113.948,12.088 C114.740004,12.9280042 115.357998,13.947994 115.802,15.148 C116.246002,16.348006 116.468,17.7159923 116.468,19.252 Z M130.688,15.364 C130.207998,14.9079977 129.644003,14.5240016 128.996,14.212 C128.347997,13.8999984 127.664004,13.744 126.944,13.744 C126.391997,13.744 125.882002,13.8519989 125.414,14.068 C124.945998,14.2840011 124.712,14.6559974 124.712,15.184 C124.712,15.6880025 124.969997,16.0479989 125.486,16.264 C126.002003,16.4800011 126.835994,16.7199987 127.988,16.984 C128.660003,17.1280007 129.337997,17.3319987 130.022,17.596 C130.706003,17.8600013 131.323997,18.2079978 131.876,18.64 C132.428003,19.0720022 132.871998,19.5999969 133.208,20.224 C133.544002,20.8480031 133.712,21.5919957 133.712,22.456 C133.712,23.5840056 133.484002,24.5379961 133.028,25.318 C132.571998,26.0980039 131.978004,26.7279976 131.246,27.208 C130.513996,27.6880024 129.692005,28.0359989 128.78,28.252 C127.867995,28.4680011 126.956005,28.576 126.044,28.576 C124.579993,28.576 123.146007,28.3420023 121.742,27.874 C120.337993,27.4059977 119.168005,26.7160046 118.232,25.804 L121.544,22.312 C122.072003,22.8880029 122.719996,23.3679981 123.488,23.752 C124.256004,24.1360019 125.071996,24.328 125.936,24.328 C126.416002,24.328 126.889998,24.2140011 127.358,23.986 C127.826002,23.7579989 128.06,23.3560029 128.06,22.78 C128.06,22.2279972 127.772003,21.8200013 127.196,21.556 C126.619997,21.2919987 125.720006,21.0160014 124.496,20.728 C123.871997,20.5839993 123.248003,20.3920012 122.624,20.152 C121.999997,19.9119988 121.442002,19.588002 120.95,19.18 C120.457998,18.771998 120.056002,18.268003 119.744,17.668 C119.431998,17.067997 119.276,16.3480042 119.276,15.508 C119.276,14.4279946 119.503998,13.5100038 119.96,12.754 C120.416002,11.9979962 121.003996,11.3800024 121.724,10.9 C122.444004,10.4199976 123.241996,10.0660011 124.118,9.838 C124.994004,9.60999886 125.863996,9.496 126.728,9.496 C128.072007,9.496 129.385994,9.7059979 130.67,10.126 C131.954006,10.5460021 133.039996,11.1759958 133.928,12.016 L130.688,15.364 Z M156.392,28 L149.084,28 L143.216,19.396 L143.108,19.396 L143.108,28 L137.168,28 L137.168,0.784 L143.108,0.784 L143.108,17.344 L143.216,17.344 L148.94,10.072 L156.104,10.072 L149.192,18.172 L156.392,28 Z M168.668,30.7 C168.307998,31.6360047 167.906002,32.4699963 167.462,33.202 C167.017998,33.9340037 166.490003,34.5579974 165.878,35.074 C165.265997,35.5900026 164.546004,35.9799987 163.718,36.244 C162.889996,36.5080013 161.912006,36.64 160.784,36.64 C160.231997,36.64 159.662003,36.6040004 159.074,36.532 C158.485997,36.4599996 157.976002,36.3640006 157.544,36.244 L158.192,31.276 C158.480001,31.3720005 158.797998,31.4499997 159.146,31.51 C159.494002,31.5700003 159.811999,31.6 160.1,31.6 C161.012005,31.6 161.671998,31.3900021 162.08,30.97 C162.488002,30.5499979 162.835999,29.9560038 163.124,29.188 L163.7,27.712 L156.212,10.072 L162.764,10.072 L166.76,21.592 L166.868,21.592 L170.432,10.072 L176.696,10.072 L168.668,30.7 Z" id="Gila-Lesky" fill="#FF4400"></path>
    </g>
</svg>